# xmcd CD database file
# Copyright (C) 1993-1997  Ti Kan
#
# Track frame offsets:
#	150
#	11685
#	26032
#	39410
#	55487
#	76162
#	90087
#	102625
#	118455
#	133722
#	148012
#	164192
#	178260
#	191000
#	206552
#	219882
#
# Disc length: 3232 seconds
#
# Revision: 1
# Processed by: cddbd v1.4b41PL1 Copyright (c) Steve Scherf et al.
# Submitted via: xmcd 2.1 PL2
#
DISCID=eb0c9e10
DTITLE="Diamond" Jim Greene - Just A Dream
DYEAR=1900
DGENRE=
TTITLE0=Hard Time Killin' Floor Blues
TTITLE1=Guitar Man
TTITLE2=This Old House
TTITLE3=Skin Game Blues
TTITLE4=Just A Dream
TTITLE5=Canned Heat Blues
TTITLE6=Blady Mae
TTITLE7=Oreo Cookie Blues
TTITLE8=Cypresso Grove
TTITLE9=You Got To Reap What You Sow
TTITLE10=Booger Rooger Blues
TTITLE11=She Don't Know
TTITLE12=Window Payne Blues
TTITLE13=Devil Got My Woman
TTITLE14=Kind Hearted Woman
TTITLE15=John Henry
EXTD=
EXTT0=
EXTT1=
EXTT2=
EXTT3=
EXTT4=
EXTT5=
EXTT6=
EXTT7=
EXTT8=
EXTT9=
EXTT10=
EXTT11=
EXTT12=
EXTT13=
EXTT14=
EXTT15=
PLAYORDER=
